<svg xmlns="http://www.w3.org/2000/svg" xmlns:xlink="http://www.w3.org/1999/xlink" width="39" height="42" viewBox="0 0 39 42">
  <defs>
    <clipPath id="clip-path">
      <rect id="Rectangle_24" data-name="Rectangle 24" width="19" height="19" transform="translate(0.5 0.475)" fill="#fff"/>
    </clipPath>
    <clipPath id="clip-path-2">
      <rect id="Rectangle_26" data-name="Rectangle 26" width="12" height="16" transform="translate(0.35 -0.325)" fill="#fff"/>
    </clipPath>
    <clipPath id="clip-path-3">
      <rect id="Rectangle_64" data-name="Rectangle 64" width="12" height="16" fill="#fff"/>
    </clipPath>
    <clipPath id="clip-icon-users">
      <rect width="39" height="42"/>
    </clipPath>
  </defs>
  <g id="icon-users" clip-path="url(#clip-icon-users)">
    <g id="Group_24" data-name="Group 24" transform="translate(20 7.525)">
      <g id="Mask_Group_5" data-name="Mask Group 5" transform="translate(-10.5 1)" clip-path="url(#clip-path)">
        <g id="Ellipse_17" data-name="Ellipse 17" transform="translate(4.5 1.475)" fill="none" stroke="#000" stroke-width="1.5">
          <circle cx="5.5" cy="5.5" r="5.5" stroke="none"/>
          <circle cx="5.5" cy="5.5" r="4.75" fill="none"/>
        </g>
        <g id="Ellipse_18" data-name="Ellipse 18" transform="translate(0.5 12.475)" fill="none" stroke="#000" stroke-width="1.5">
          <ellipse cx="9" cy="8.5" rx="9" ry="8.5" stroke="none"/>
          <ellipse cx="9" cy="8.5" rx="8.25" ry="7.75" fill="none"/>
        </g>
      </g>
      <g id="Mask_Group_7" data-name="Mask Group 7" transform="translate(5.65 4.8)" clip-path="url(#clip-path-2)">
        <g id="Ellipse_21" data-name="Ellipse 21" transform="translate(0.35 0.675)" fill="none" stroke="#000" stroke-width="1.5">
          <circle cx="4.5" cy="4.5" r="4.5" stroke="none"/>
          <circle cx="4.5" cy="4.5" r="3.75" fill="none"/>
        </g>
        <g id="Ellipse_22" data-name="Ellipse 22" transform="translate(-1.65 9.675)" fill="none" stroke="#000" stroke-width="1.5">
          <ellipse cx="6.5" cy="7" rx="6.5" ry="7" stroke="none"/>
          <ellipse cx="6.5" cy="7" rx="5.75" ry="6.25" fill="none"/>
        </g>
      </g>
      <g id="Mask_Group_10" data-name="Mask Group 10" transform="translate(-20 4.475)" clip-path="url(#clip-path-3)">
        <g id="Ellipse_27" data-name="Ellipse 27" transform="translate(3 1)" fill="none" stroke="#000" stroke-width="1.5">
          <circle cx="4.5" cy="4.5" r="4.5" stroke="none"/>
          <circle cx="4.5" cy="4.5" r="3.75" fill="none"/>
        </g>
        <g id="Ellipse_28" data-name="Ellipse 28" transform="translate(1 10)" fill="none" stroke="#000" stroke-width="1.5">
          <ellipse cx="6.5" cy="7" rx="6.5" ry="7" stroke="none"/>
          <ellipse cx="6.5" cy="7" rx="5.75" ry="6.25" fill="none"/>
        </g>
      </g>
    </g>
  </g>
</svg>
