<svg xmlns="http://www.w3.org/2000/svg" xmlns:xlink="http://www.w3.org/1999/xlink" width="39" height="42" viewBox="0 0 39 42">
  <defs>
    <clipPath id="clip-icon-pin">
      <rect width="39" height="42"/>
    </clipPath>
  </defs>
  <g id="icon-pin" clip-path="url(#clip-icon-pin)">
    <g id="Group_19" data-name="Group 19" transform="translate(1730.72 34.032)">
      <path id="Path_13" data-name="Path 13" d="M-1705.916-10.4l5.645-5.645.49.49a3.6,3.6,0,0,0,5.1,0h0a3.6,3.6,0,0,0,0-5.1l-9.3-9.3a3.6,3.6,0,0,0-5.1,0h0a3.6,3.6,0,0,0,0,5.1l.49.49-5.645,5.645a13.621,13.621,0,0,0-14.162,3.216l-.007.007a1,1,0,0,0,.009,1.406l17.846,17.846a1,1,0,0,0,1.406.009l.007-.007A13.621,13.621,0,0,0-1705.916-10.4Z" transform="translate(0 0)" fill="none" stroke="#000" stroke-miterlimit="10" stroke-width="2.3"/>
      <rect id="Rectangle_27" data-name="Rectangle 27" width="1.782" height="10.248" rx="0.891" transform="translate(-1719.87 -6.02) rotate(45)"/>
    </g>
  </g>
</svg>
