<svg xmlns="http://www.w3.org/2000/svg" xmlns:xlink="http://www.w3.org/1999/xlink" width="24" height="24" viewBox="0 0 24 24">
  <defs>
    <clipPath id="clip-icon-config">
      <rect width="24" height="24"/>
    </clipPath>
  </defs>
  <g id="icon-config" clip-path="url(#clip-icon-config)">
    <g id="settings" transform="translate(0 0.483)">
      <g id="Group_12" data-name="Group 12">
        <g id="Group_11" data-name="Group 11">
          <path id="Path_9" data-name="Path 9" d="M21.532,9.013H19.657a8.475,8.475,0,0,0-.613-1.481l1.324-1.324a1.5,1.5,0,0,0,0-2.126L18.952,2.665a1.54,1.54,0,0,0-2.125,0L15.5,3.989a8.5,8.5,0,0,0-1.481-.613V1.5a1.5,1.5,0,0,0-1.5-1.5h-2a1.5,1.5,0,0,0-1.5,1.5V3.377a8.513,8.513,0,0,0-1.481.613L6.207,2.665a1.5,1.5,0,0,0-2.125,0L2.664,4.083a1.505,1.505,0,0,0,0,2.125L3.989,7.533a8.5,8.5,0,0,0-.613,1.481H1.5a1.5,1.5,0,0,0-1.5,1.5v2a1.5,1.5,0,0,0,1.5,1.5H3.377A8.513,8.513,0,0,0,3.99,15.5L2.665,16.827a1.5,1.5,0,0,0,0,2.125L4.083,20.37a1.505,1.505,0,0,0,2.125,0l1.325-1.324a8.5,8.5,0,0,0,1.481.613v1.874a1.5,1.5,0,0,0,1.5,1.5h2a1.5,1.5,0,0,0,1.5-1.5V19.657a8.5,8.5,0,0,0,1.481-.613l1.324,1.325a1.54,1.54,0,0,0,2.125,0l1.417-1.417a1.5,1.5,0,0,0,0-2.125L19.045,15.5a8.5,8.5,0,0,0,.613-1.481h1.874a1.5,1.5,0,0,0,1.5-1.5v-2A1.5,1.5,0,0,0,21.532,9.013Zm.5,3.505a.5.5,0,0,1-.5.5H19.279a.5.5,0,0,0-.485.376,7.527,7.527,0,0,1-.8,1.939.5.5,0,0,0,.077.608l1.592,1.593a.5.5,0,0,1,0,.709l-1.417,1.417a.516.516,0,0,1-.709,0l-1.592-1.592a.5.5,0,0,0-.609-.077,7.5,7.5,0,0,1-1.938.8.5.5,0,0,0-.375.484v2.253a.5.5,0,0,1-.5.5h-2a.5.5,0,0,1-.5-.5V19.279a.5.5,0,0,0-.376-.485,7.508,7.508,0,0,1-1.939-.8.5.5,0,0,0-.254-.07.5.5,0,0,0-.355.147L5.5,19.661a.5.5,0,0,1-.709,0L3.373,18.243a.5.5,0,0,1,0-.709l1.592-1.592a.5.5,0,0,0,.077-.608,7.518,7.518,0,0,1-.8-1.939.5.5,0,0,0-.484-.376H1.5a.5.5,0,0,1-.5-.5v-2a.5.5,0,0,1,.5-.5H3.756a.5.5,0,0,0,.485-.376,7.508,7.508,0,0,1,.8-1.939.5.5,0,0,0-.077-.608L3.373,5.5a.5.5,0,0,1,0-.709L4.791,3.373a.5.5,0,0,1,.709,0L7.092,4.966a.5.5,0,0,0,.608.077,7.518,7.518,0,0,1,1.939-.8.5.5,0,0,0,.376-.485V1.5a.5.5,0,0,1,.5-.5h2a.5.5,0,0,1,.5.5V3.756a.5.5,0,0,0,.376.485,7.5,7.5,0,0,1,1.938.8.5.5,0,0,0,.609-.077l1.592-1.592a.514.514,0,0,1,.709,0l1.417,1.417a.5.5,0,0,1,0,.709L18.068,7.092a.5.5,0,0,0-.077.608,7.52,7.52,0,0,1,.8,1.939.5.5,0,0,0,.484.376h2.253a.5.5,0,0,1,.5.5Z" stroke="#000" stroke-width="0.5"/>
        </g>
      </g>
      <g id="Group_14" data-name="Group 14" transform="translate(7.01 7.01)">
        <g id="Group_13" data-name="Group 13">
          <path id="Path_10" data-name="Path 10" d="M116.507,112a4.507,4.507,0,1,0,4.507,4.507A4.512,4.512,0,0,0,116.507,112Zm0,8.012a3.505,3.505,0,1,1,3.505-3.505A3.509,3.509,0,0,1,116.507,120.012Z" transform="translate(-112 -112)" stroke="#000" stroke-width="0.5"/>
        </g>
      </g>
    </g>
  </g>
</svg>
