<svg xmlns="http://www.w3.org/2000/svg" xmlns:xlink="http://www.w3.org/1999/xlink" width="24" height="24" viewBox="0 0 24 24">
  <defs>
    <clipPath id="clip-icon-post">
      <rect width="24" height="24"/>
    </clipPath>
  </defs>
  <g id="icon-post" clip-path="url(#clip-icon-post)">
    <g id="list" transform="translate(0.589 0.589)">
      <g id="Group_9" data-name="Group 9">
        <g id="Group_8" data-name="Group 8">
          <path id="Path_4" data-name="Path 4" d="M17.923,0H5.018A5.018,5.018,0,0,0,0,5.018v12.9a5.018,5.018,0,0,0,5.018,5.018h12.9a5.018,5.018,0,0,0,5.018-5.018V5.018A5.018,5.018,0,0,0,17.923,0Zm3.585,17.923a3.585,3.585,0,0,1-3.585,3.585H5.018a3.585,3.585,0,0,1-3.585-3.585V5.018A3.585,3.585,0,0,1,5.018,1.434h12.9a3.585,3.585,0,0,1,3.585,3.585Z"/>
          <path id="Path_5" data-name="Path 5" d="M114.151,112h-1.434a.717.717,0,0,0-.717.717v1.434a.717.717,0,0,0,.717.717h1.434a.717.717,0,0,0,.717-.717v-1.434A.717.717,0,0,0,114.151,112Z" transform="translate(-106.982 -106.982)"/>
          <path id="Path_6" data-name="Path 6" d="M114.151,224h-1.434a.717.717,0,0,0-.717.717v1.434a.717.717,0,0,0,.717.717h1.434a.717.717,0,0,0,.717-.717v-1.434A.717.717,0,0,0,114.151,224Z" transform="translate(-106.982 -213.963)"/>
          <path id="Path_7" data-name="Path 7" d="M114.151,336h-1.434a.717.717,0,0,0-.717.717v1.434a.717.717,0,0,0,.717.717h1.434a.717.717,0,0,0,.717-.717v-1.434A.717.717,0,0,0,114.151,336Z" transform="translate(-106.982 -320.945)"/>
          <rect id="Rectangle_6" data-name="Rectangle 6" width="8" height="2" rx="1" transform="translate(9.411 5.411)"/>
          <rect id="Rectangle_7" data-name="Rectangle 7" width="8" height="2" rx="1" transform="translate(9.411 10.411)"/>
          <rect id="Rectangle_8" data-name="Rectangle 8" width="8" height="2" rx="1" transform="translate(9.411 15.411)"/>
        </g>
      </g>
    </g>
  </g>
</svg>
